<svg width="405" height="108" viewBox="0 0 405 108" fill="none" xmlns="http://www.w3.org/2000/svg">
<g filter="url(#filter0_d_1_3)">
<path d="M91.3125 20.875L65.8125 98H42.0625L13.5625 20.875L4.9375 19.875L4.9375 7H45.75V19.875L37.625 21.125L53.9375 72.25L54.8125 75.8125H55.1875L56 72.4375L71.8125 21.125L62.0625 19.875V7H100.188V19.875L91.3125 20.875ZM133.75 0.5V17.5625L111.188 17.5625V0.5H133.75ZM141.625 85.1875V98H103.875V85.1875L111.812 83.1875V45.25L102.375 43.25V30.375L133.75 30.375V83.1875L141.625 85.1875ZM178.812 99.3125C172.104 99.3125 166.333 97.8333 161.5 94.875C156.667 91.9167 152.958 87.8542 150.375 82.6875C147.792 77.5208 146.5 71.625 146.5 65V63.5625C146.5 56.8125 147.854 50.8333 150.562 45.625C153.271 40.4583 157.021 36.4167 161.812 33.5C166.604 30.5833 172.208 29.125 178.625 29.125C185.083 29.125 190.604 30.1042 195.188 32.0625C199.812 34.0208 203.458 36.0625 206.125 38.1875L205.75 59.5H189.438L186.812 47.25C186.104 46.5417 185.146 45.9583 183.938 45.5C182.771 45.0417 181.792 44.8125 181 44.8125C177.875 44.8125 175.396 45.4792 173.562 46.8125C171.729 48.1875 170.417 50.25 169.625 53C168.833 55.75 168.438 59.2708 168.438 63.5625V65C168.438 69.375 168.979 72.875 170.062 75.5C171.146 78.0417 172.479 79.875 174.062 81C175.688 82.0833 177.354 82.625 179.062 82.625C181.688 82.625 183.708 81.9792 185.125 80.6875C186.583 79.3542 187.708 77.4167 188.5 74.875H206.875L207.125 75.25C206.125 80.5833 204.562 85.0417 202.438 88.625C200.312 92.1667 197.354 94.8333 193.562 96.625C189.812 98.4167 184.896 99.3125 178.812 99.3125ZM266.375 58.6875L284.375 82.9375L291.938 85.1875V98L256.062 98V86.0625L260.188 84.625L260.062 84.375L251.062 71.4375L243.062 78.0625V83.1875L249.5 85.1875V98H213.25V85.1875L221.25 83.1875V15.375L211.75 13.375V0.5H243.062V57.625L258.5 44.25V44.1875L251.75 43.0625V30.375H290.688V43.25L281.938 45.8125L266.375 58.6875ZM327.125 0.5V17.5625H304.562V0.5L327.125 0.5ZM335 85.1875V98H297.25V85.1875L305.188 83.1875V45.25L295.75 43.25V30.375H327.125V83.1875L335 85.1875ZM373 99.3125C366.417 99.3125 360.646 97.875 355.688 95C350.771 92.1667 346.938 88.2708 344.188 83.3125C341.438 78.3542 340.062 72.75 340.062 66.5V64.1875C340.062 57.2708 341.271 51.1875 343.688 45.9375C346.104 40.6458 349.646 36.5208 354.312 33.5625C358.979 30.5625 364.708 29.0833 371.5 29.125C377.583 29.125 382.771 30.2917 387.062 32.625C395.688 37.5 400 46.5833 400 59.875V71.1875H362.812L362.75 71.625C363.042 73.7083 363.771 75.5833 364.938 77.25C366.021 78.9167 367.542 80.2292 369.5 81.1875C371.458 82.1458 373.875 82.625 376.75 82.625C382.25 82.625 387.917 81.2708 393.75 78.5625L398.75 91.8125C395.708 93.9792 392 95.7708 387.625 97.1875C383.25 98.6042 378.375 99.3125 373 99.3125ZM362.562 57.3125L362.812 57.625H380V56C380 53.6667 379.771 51.6458 379.312 49.9375C378.312 46.6458 375.875 45 372 45C369.792 45 368.042 45.5208 366.75 46.5625C365.458 47.6042 364.5 49.0625 363.875 50.9375C363.25 52.8125 362.812 54.9375 362.562 57.3125Z" fill="black" fill-opacity="0.9" shape-rendering="crispEdges"/>
<path d="M91.3125 20.875L91.2565 20.3781L90.9383 20.414L90.8378 20.718L91.3125 20.875ZM65.8125 98V98.5H66.1738L66.2872 98.157L65.8125 98ZM42.0625 98L41.5935 98.1733L41.7142 98.5H42.0625V98ZM13.5625 20.875L14.0315 20.7017L13.9251 20.4137L13.6201 20.3783L13.5625 20.875ZM4.9375 19.875H4.4375L4.4375 20.3204L4.87991 20.3717L4.9375 19.875ZM4.9375 7V6.5H4.4375V7H4.9375ZM45.75 7H46.25V6.5H45.75V7ZM45.75 19.875L45.826 20.3692L46.25 20.304V19.875H45.75ZM37.625 21.125L37.549 20.6308L36.9709 20.7198L37.1487 21.277L37.625 21.125ZM53.9375 72.25L54.4231 72.1307L54.419 72.1142L54.4138 72.098L53.9375 72.25ZM54.8125 75.8125L54.3269 75.9318L54.4204 76.3125H54.8125V75.8125ZM55.1875 75.8125V76.3125H55.5814L55.6736 75.9295L55.1875 75.8125ZM56 72.4375L55.5222 72.2903L55.5176 72.3052L55.5139 72.3205L56 72.4375ZM71.8125 21.125L72.2903 21.2722L72.4653 20.7046L71.8761 20.6291L71.8125 21.125ZM62.0625 19.875H61.5625V20.315L61.9989 20.3709L62.0625 19.875ZM62.0625 7V6.5H61.5625V7H62.0625ZM100.188 7H100.688V6.5H100.188V7ZM100.188 19.875L100.243 20.3719L100.688 20.3218V19.875H100.188ZM91.3125 20.875L90.8378 20.718L65.3378 97.843L65.8125 98L66.2872 98.157L91.7872 21.032L91.3125 20.875ZM65.8125 98V97.5H42.0625V98V98.5H65.8125V98ZM42.0625 98L42.5315 97.8267L14.0315 20.7017L13.5625 20.875L13.0935 21.0483L41.5935 98.1733L42.0625 98ZM13.5625 20.875L13.6201 20.3783L4.99509 19.3783L4.9375 19.875L4.87991 20.3717L13.5049 21.3717L13.5625 20.875ZM4.9375 19.875H5.4375L5.4375 7H4.9375H4.4375V19.875H4.9375ZM4.9375 7V7.5H45.75V7V6.5H4.9375V7ZM45.75 7H45.25V19.875H45.75H46.25V7H45.75ZM45.75 19.875L45.674 19.3808L37.549 20.6308L37.625 21.125L37.701 21.6192L45.826 20.3692L45.75 19.875ZM37.625 21.125L37.1487 21.277L53.4612 72.402L53.9375 72.25L54.4138 72.098L38.1013 20.973L37.625 21.125ZM53.9375 72.25L53.4519 72.3693L54.3269 75.9318L54.8125 75.8125L55.2981 75.6932L54.4231 72.1307L53.9375 72.25ZM54.8125 75.8125V76.3125H55.1875V75.8125V75.3125H54.8125V75.8125ZM55.1875 75.8125L55.6736 75.9295L56.4861 72.5545L56 72.4375L55.5139 72.3205L54.7014 75.6955L55.1875 75.8125ZM56 72.4375L56.4778 72.5847L72.2903 21.2722L71.8125 21.125L71.3347 20.9778L55.5222 72.2903L56 72.4375ZM71.8125 21.125L71.8761 20.6291L62.1261 19.3791L62.0625 19.875L61.9989 20.3709L71.7489 21.6209L71.8125 21.125ZM62.0625 19.875H62.5625V7H62.0625H61.5625V19.875H62.0625ZM62.0625 7V7.5H100.188V7V6.5H62.0625V7ZM100.188 7H99.6875V19.875H100.188H100.688V7H100.188ZM100.188 19.875L100.132 19.3781L91.2565 20.3781L91.3125 20.875L91.3685 21.3719L100.243 20.3719L100.188 19.875ZM133.75 0.5H134.25V0H133.75V0.5ZM133.75 17.5625V18.0625H134.25V17.5625H133.75ZM111.188 17.5625H110.688V18.0625H111.188V17.5625ZM111.188 0.5V0H110.688V0.5H111.188ZM141.625 85.1875H142.125V84.7986L141.748 84.7029L141.625 85.1875ZM141.625 98V98.5H142.125V98H141.625ZM103.875 98H103.375V98.5H103.875V98ZM103.875 85.1875L103.753 84.7027L103.375 84.7979V85.1875H103.875ZM111.812 83.1875L111.935 83.6723L112.312 83.5771V83.1875H111.812ZM111.812 45.25H112.312V44.8449L111.916 44.7609L111.812 45.25ZM102.375 43.25H101.875V43.6551L102.271 43.7391L102.375 43.25ZM102.375 30.375V29.875H101.875V30.375H102.375ZM133.75 30.375H134.25V29.875H133.75V30.375ZM133.75 83.1875H133.25V83.5764L133.627 83.6721L133.75 83.1875ZM133.75 0.5H133.25V17.5625H133.75H134.25V0.5H133.75ZM133.75 17.5625V17.0625L111.188 17.0625V17.5625V18.0625L133.75 18.0625V17.5625ZM111.188 17.5625H111.688V0.5H111.188H110.688V17.5625H111.188ZM111.188 0.5V1H133.75V0.5V0H111.188V0.5ZM141.625 85.1875H141.125V98H141.625H142.125V85.1875H141.625ZM141.625 98V97.5H103.875V98V98.5H141.625V98ZM103.875 98H104.375V85.1875H103.875H103.375V98H103.875ZM103.875 85.1875L103.997 85.6723L111.935 83.6723L111.812 83.1875L111.69 82.7027L103.753 84.7027L103.875 85.1875ZM111.812 83.1875H112.312V45.25H111.812H111.312V83.1875H111.812ZM111.812 45.25L111.916 44.7609L102.479 42.7609L102.375 43.25L102.271 43.7391L111.709 45.7391L111.812 45.25ZM102.375 43.25H102.875V30.375H102.375H101.875V43.25H102.375ZM102.375 30.375V30.875L133.75 30.875V30.375V29.875L102.375 29.875V30.375ZM133.75 30.375H133.25V83.1875H133.75H134.25V30.375H133.75ZM133.75 83.1875L133.627 83.6721L141.502 85.6721L141.625 85.1875L141.748 84.7029L133.873 82.7029L133.75 83.1875ZM150.562 45.625L150.12 45.3929L150.119 45.3943L150.562 45.625ZM161.812 33.5L162.072 33.9271L161.812 33.5ZM195.188 32.0625L194.991 32.5223L194.993 32.5229L195.188 32.0625ZM206.125 38.1875L206.625 38.1963L206.629 37.95L206.437 37.7965L206.125 38.1875ZM205.75 59.5V60H206.241L206.25 59.5088L205.75 59.5ZM189.438 59.5L188.949 59.6048L189.033 60H189.438V59.5ZM186.812 47.25L187.301 47.1452L187.27 47.0009L187.166 46.8964L186.812 47.25ZM183.938 45.5L183.755 45.9654L183.76 45.9675L183.938 45.5ZM173.562 46.8125L173.268 46.4081L173.262 46.4125L173.562 46.8125ZM170.062 75.5L169.6 75.6908L169.603 75.696L170.062 75.5ZM174.062 81L173.773 81.4076L173.779 81.4119L173.785 81.416L174.062 81ZM185.125 80.6875L185.462 81.057L185.462 81.0565L185.125 80.6875ZM188.5 74.875V74.375H188.132L188.023 74.7263L188.5 74.875ZM206.875 74.875L207.291 74.5976L207.143 74.375H206.875V74.875ZM207.125 75.25L207.616 75.3421L207.654 75.142L207.541 74.9726L207.125 75.25ZM202.438 88.625L202.866 88.8823L202.868 88.88L202.438 88.625ZM193.562 96.625L193.349 96.1729L193.347 96.1738L193.562 96.625ZM178.812 99.3125V98.8125C172.179 98.8125 166.502 97.3506 161.761 94.4485L161.5 94.875L161.239 95.3015C166.164 98.3161 172.029 99.8125 178.812 99.8125V99.3125ZM161.5 94.875L161.761 94.4485C157.009 91.5401 153.365 87.5486 150.822 82.4639L150.375 82.6875L149.928 82.9111C152.552 88.1598 156.324 92.2933 161.239 95.3015L161.5 94.875ZM150.375 82.6875L150.822 82.4639C148.278 77.3762 147 71.5588 147 65H146.5H146C146 71.6912 147.305 77.6655 149.928 82.9111L150.375 82.6875ZM146.5 65H147V63.5625H146.5H146V65H146.5ZM146.5 63.5625H147C147 56.8807 148.34 50.9828 151.006 45.8557L150.562 45.625L150.119 45.3943C147.368 50.6839 146 56.7443 146 63.5625H146.5ZM150.562 45.625L151.005 45.8571C153.673 40.7675 157.362 36.7946 162.072 33.9271L161.812 33.5L161.553 33.0729C156.68 36.0387 152.868 40.1492 150.12 45.3929L150.562 45.625ZM161.812 33.5L162.072 33.9271C166.775 31.0647 172.287 29.625 178.625 29.625V29.125V28.625C172.13 28.625 166.433 30.102 161.553 33.0729L161.812 33.5ZM178.625 29.125V29.625C185.035 29.625 190.485 30.5971 194.991 32.5223L195.188 32.0625L195.384 31.6027C190.723 29.6113 185.132 28.625 178.625 28.625V29.125ZM195.188 32.0625L194.993 32.5229C199.593 34.4711 203.195 36.4918 205.813 38.5785L206.125 38.1875L206.437 37.7965C203.722 35.6332 200.032 33.5706 195.382 31.6021L195.188 32.0625ZM206.125 38.1875L205.625 38.1787L205.25 59.4912L205.75 59.5L206.25 59.5088L206.625 38.1963L206.125 38.1875ZM205.75 59.5V59H189.438V59.5V60H205.75V59.5ZM189.438 59.5L189.926 59.3952L187.301 47.1452L186.812 47.25L186.324 47.3548L188.949 59.6048L189.438 59.5ZM186.812 47.25L187.166 46.8964C186.395 46.1258 185.371 45.5089 184.115 45.0325L183.938 45.5L183.76 45.9675C184.921 46.4077 185.813 46.9575 186.459 47.6036L186.812 47.25ZM183.938 45.5L184.12 45.0346C182.925 44.5652 181.88 44.3125 181 44.3125V44.8125V45.3125C181.703 45.3125 182.616 45.5181 183.755 45.9654L183.938 45.5ZM181 44.8125V44.3125C177.808 44.3125 175.214 44.993 173.268 46.4081L173.562 46.8125L173.857 47.2169C175.577 45.9653 177.942 45.3125 181 45.3125V44.8125ZM173.562 46.8125L173.262 46.4125C171.322 47.8675 169.959 50.0336 169.145 52.8617L169.625 53L170.105 53.1383C170.875 50.4664 172.136 48.5075 173.863 47.2125L173.562 46.8125ZM169.625 53L169.145 52.8617C168.335 55.6731 167.938 59.2449 167.938 63.5625H168.438H168.938C168.938 59.2968 169.331 55.8269 170.105 53.1383L169.625 53ZM168.438 63.5625H167.938V65H168.438H168.938V63.5625H168.438ZM168.438 65H167.938C167.938 69.4088 168.482 72.9816 169.6 75.6907L170.062 75.5L170.525 75.3093C169.476 72.7684 168.938 69.3412 168.938 65H168.438ZM170.062 75.5L169.603 75.696C170.708 78.2885 172.089 80.2111 173.773 81.4076L174.062 81L174.352 80.5924C172.869 79.5389 171.584 77.7948 170.522 75.304L170.062 75.5ZM174.062 81L173.785 81.416C175.48 82.546 177.242 83.125 179.062 83.125V82.625V82.125C177.466 82.125 175.895 81.6206 174.34 80.584L174.062 81ZM179.062 82.625V83.125C181.766 83.125 183.924 82.4594 185.462 81.057L185.125 80.6875L184.788 80.318C183.493 81.4989 181.609 82.125 179.062 82.125V82.625ZM185.125 80.6875L185.462 81.0565C187.005 79.6462 188.168 77.6216 188.977 75.0237L188.5 74.875L188.023 74.7263C187.248 77.2117 186.162 79.0622 184.788 80.3185L185.125 80.6875ZM188.5 74.875V75.375H206.875V74.875V74.375H188.5V74.875ZM206.875 74.875L206.459 75.1524L206.709 75.5274L207.125 75.25L207.541 74.9726L207.291 74.5976L206.875 74.875ZM207.125 75.25L206.634 75.1579C205.641 80.4502 204.095 84.8496 202.007 88.37L202.438 88.625L202.868 88.88C205.03 85.2338 206.609 80.7165 207.616 75.3421L207.125 75.25ZM202.438 88.625L202.009 88.3678C199.935 91.8233 197.053 94.4228 193.349 96.1729L193.562 96.625L193.776 97.0771C197.656 95.2439 200.69 92.5101 202.866 88.8822L202.438 88.625ZM193.562 96.625L193.347 96.1738C189.688 97.922 184.853 98.8125 178.812 98.8125V99.3125V99.8125C184.939 99.8125 189.937 98.9114 193.778 97.0762L193.562 96.625ZM266.375 58.6875L266.056 58.3023L265.691 58.6046L265.974 58.9855L266.375 58.6875ZM284.375 82.9375L283.974 83.2355L284.073 83.3692L284.232 83.4167L284.375 82.9375ZM291.938 85.1875H292.438V84.8146L292.08 84.7083L291.938 85.1875ZM291.938 98V98.5H292.438V98H291.938ZM256.062 98H255.562V98.5H256.062V98ZM256.062 86.0625L255.898 85.5903L255.562 85.7073V86.0625H256.062ZM260.188 84.625L260.352 85.0972L260.889 84.91L260.635 84.4014L260.188 84.625ZM260.062 84.375L260.51 84.1514L260.494 84.1191L260.473 84.0895L260.062 84.375ZM251.062 71.4375L251.473 71.152L251.162 70.7056L250.744 71.0524L251.062 71.4375ZM243.062 78.0625L242.744 77.6774L242.562 77.8274V78.0625H243.062ZM243.062 83.1875H242.562V83.5557L242.914 83.665L243.062 83.1875ZM249.5 85.1875H250V84.8193L249.648 84.71L249.5 85.1875ZM249.5 98V98.5H250V98H249.5ZM213.25 98H212.75V98.5H213.25V98ZM213.25 85.1875L213.129 84.7024L212.75 84.7971V85.1875H213.25ZM221.25 83.1875L221.371 83.6726L221.75 83.5779V83.1875H221.25ZM221.25 15.375H221.75V14.9693L221.353 14.8857L221.25 15.375ZM211.75 13.375H211.25V13.7807L211.647 13.8643L211.75 13.375ZM211.75 0.5V0H211.25V0.5H211.75ZM243.062 0.5H243.562V0H243.062V0.5ZM243.062 57.625H242.562V58.7198L243.39 58.0029L243.062 57.625ZM258.5 44.25L258.827 44.6279L259 44.4784V44.25H258.5ZM258.5 44.1875H259V43.7639L258.582 43.6943L258.5 44.1875ZM251.75 43.0625H251.25V43.4861L251.668 43.5557L251.75 43.0625ZM251.75 30.375V29.875H251.25V30.375H251.75ZM290.688 30.375H291.188V29.875H290.688V30.375ZM290.688 43.25L290.828 43.7298L291.188 43.6246V43.25H290.688ZM281.938 45.8125L281.797 45.3327L281.698 45.3616L281.619 45.4273L281.938 45.8125ZM266.375 58.6875L265.974 58.9855L283.974 83.2355L284.375 82.9375L284.776 82.6395L266.776 58.3895L266.375 58.6875ZM284.375 82.9375L284.232 83.4167L291.795 85.6667L291.938 85.1875L292.08 84.7083L284.518 82.4583L284.375 82.9375ZM291.938 85.1875H291.438V98H291.938H292.438V85.1875H291.938ZM291.938 98V97.5L256.062 97.5V98V98.5L291.938 98.5V98ZM256.062 98H256.562V86.0625H256.062H255.562V98H256.062ZM256.062 86.0625L256.227 86.5347L260.352 85.0972L260.188 84.625L260.023 84.1528L255.898 85.5903L256.062 86.0625ZM260.188 84.625L260.635 84.4014L260.51 84.1514L260.062 84.375L259.615 84.5986L259.74 84.8486L260.188 84.625ZM260.062 84.375L260.473 84.0895L251.473 71.152L251.062 71.4375L250.652 71.723L259.652 84.6605L260.062 84.375ZM251.062 71.4375L250.744 71.0524L242.744 77.6774L243.062 78.0625L243.381 78.4476L251.381 71.8226L251.062 71.4375ZM243.062 78.0625H242.562V83.1875H243.062H243.562V78.0625H243.062ZM243.062 83.1875L242.914 83.665L249.352 85.665L249.5 85.1875L249.648 84.71L243.211 82.71L243.062 83.1875ZM249.5 85.1875H249V98H249.5H250V85.1875H249.5ZM249.5 98V97.5H213.25V98V98.5H249.5V98ZM213.25 98H213.75V85.1875H213.25H212.75V98H213.25ZM213.25 85.1875L213.371 85.6726L221.371 83.6726L221.25 83.1875L221.129 82.7024L213.129 84.7024L213.25 85.1875ZM221.25 83.1875H221.75V15.375H221.25H220.75V83.1875H221.25ZM221.25 15.375L221.353 14.8857L211.853 12.8857L211.75 13.375L211.647 13.8643L221.147 15.8643L221.25 15.375ZM211.75 13.375H212.25V0.5H211.75H211.25V13.375H211.75ZM211.75 0.5V1H243.062V0.5V0H211.75V0.5ZM243.062 0.5H242.562V57.625H243.062H243.562V0.5H243.062ZM243.062 57.625L243.39 58.0029L258.827 44.6279L258.5 44.25L258.173 43.8721L242.735 57.2471L243.062 57.625ZM258.5 44.25H259V44.1875H258.5H258V44.25H258.5ZM258.5 44.1875L258.582 43.6943L251.832 42.5693L251.75 43.0625L251.668 43.5557L258.418 44.6807L258.5 44.1875ZM251.75 43.0625H252.25V30.375H251.75H251.25V43.0625H251.75ZM251.75 30.375V30.875H290.688V30.375V29.875H251.75V30.375ZM290.688 30.375H290.188V43.25H290.688H291.188V30.375H290.688ZM290.688 43.25L290.547 42.7702L281.797 45.3327L281.938 45.8125L282.078 46.2923L290.828 43.7298L290.688 43.25ZM281.938 45.8125L281.619 45.4273L266.056 58.3023L266.375 58.6875L266.694 59.0727L282.256 46.1977L281.938 45.8125ZM327.125 0.5H327.625V0H327.125V0.5ZM327.125 17.5625V18.0625H327.625V17.5625H327.125ZM304.562 17.5625H304.062V18.0625H304.562V17.5625ZM304.562 0.5V0H304.062V0.5H304.562ZM335 85.1875H335.5V84.7986L335.123 84.7029L335 85.1875ZM335 98V98.5H335.5V98H335ZM297.25 98H296.75V98.5H297.25V98ZM297.25 85.1875L297.128 84.7027L296.75 84.7979V85.1875H297.25ZM305.188 83.1875L305.31 83.6723L305.688 83.5771V83.1875H305.188ZM305.188 45.25H305.688V44.8449L305.291 44.7609L305.188 45.25ZM295.75 43.25H295.25V43.6551L295.646 43.7391L295.75 43.25ZM295.75 30.375V29.875H295.25V30.375H295.75ZM327.125 30.375H327.625V29.875H327.125V30.375ZM327.125 83.1875H326.625V83.5764L327.002 83.6721L327.125 83.1875ZM327.125 0.5H326.625V17.5625H327.125H327.625V0.5H327.125ZM327.125 17.5625V17.0625H304.562V17.5625V18.0625H327.125V17.5625ZM304.562 17.5625H305.062V0.5H304.562H304.062V17.5625H304.562ZM304.562 0.5V1L327.125 1V0.5V0L304.562 0V0.5ZM335 85.1875H334.5V98H335H335.5V85.1875H335ZM335 98V97.5H297.25V98V98.5H335V98ZM297.25 98H297.75V85.1875H297.25H296.75V98H297.25ZM297.25 85.1875L297.372 85.6723L305.31 83.6723L305.188 83.1875L305.065 82.7027L297.128 84.7027L297.25 85.1875ZM305.188 83.1875H305.688V45.25H305.188H304.688V83.1875H305.188ZM305.188 45.25L305.291 44.7609L295.854 42.7609L295.75 43.25L295.646 43.7391L305.084 45.7391L305.188 45.25ZM295.75 43.25H296.25V30.375H295.75H295.25V43.25H295.75ZM295.75 30.375V30.875H327.125V30.375V29.875H295.75V30.375ZM327.125 30.375H326.625V83.1875H327.125H327.625V30.375H327.125ZM327.125 83.1875L327.002 83.6721L334.877 85.6721L335 85.1875L335.123 84.7029L327.248 82.7029L327.125 83.1875ZM355.688 95L355.938 94.5675L355.937 94.5668L355.688 95ZM343.688 45.9375L344.142 46.1466L344.142 46.1452L343.688 45.9375ZM354.312 33.5625L354.58 33.9848L354.583 33.9831L354.312 33.5625ZM371.5 29.125L371.497 29.625H371.5V29.125ZM387.062 32.625L387.309 32.1897L387.301 32.1857L387.062 32.625ZM400 71.1875V71.6875H400.5V71.1875H400ZM362.812 71.1875V70.6875H362.379L362.318 71.1168L362.812 71.1875ZM362.75 71.625L362.255 71.5543L362.245 71.6243L362.255 71.6943L362.75 71.625ZM364.938 77.25L365.357 76.9775L365.352 76.9703L365.347 76.9633L364.938 77.25ZM393.75 78.5625L394.218 78.386L394.028 77.8823L393.539 78.109L393.75 78.5625ZM398.75 91.8125L399.04 92.2197L399.354 91.9963L399.218 91.636L398.75 91.8125ZM362.562 57.3125L362.065 57.2602L362.044 57.4644L362.172 57.6248L362.562 57.3125ZM362.812 57.625L362.422 57.9373L362.572 58.125H362.812V57.625ZM380 57.625V58.125H380.5V57.625H380ZM379.312 49.9375L379.795 49.8079L379.793 49.8L379.791 49.7922L379.312 49.9375ZM373 99.3125V98.8125C366.491 98.8125 360.81 97.3921 355.938 94.5675L355.688 95L355.437 95.4325C360.482 98.3579 366.342 99.8125 373 99.8125V99.3125ZM355.688 95L355.937 94.5668C351.099 91.7788 347.331 87.9488 344.625 83.07L344.188 83.3125L343.75 83.555C346.544 88.5928 350.443 92.5546 355.438 95.4332L355.688 95ZM344.188 83.3125L344.625 83.07C341.92 78.1933 340.562 72.674 340.562 66.5H340.062H339.562C339.562 72.826 340.955 78.5151 343.75 83.555L344.188 83.3125ZM340.062 66.5H340.562V64.1875H340.062H339.562V66.5H340.062ZM340.062 64.1875H340.562C340.562 57.329 341.761 51.3194 344.142 46.1466L343.688 45.9375L343.233 45.7284C340.781 51.0556 339.562 57.2126 339.562 64.1875H340.062ZM343.688 45.9375L344.142 46.1452C346.521 40.9368 350 36.8884 354.58 33.9848L354.312 33.5625L354.045 33.1402C349.292 36.1532 345.687 40.3549 343.233 45.7298L343.688 45.9375ZM354.312 33.5625L354.583 33.9831C359.151 31.0462 364.78 29.5838 371.497 29.625L371.5 29.125L371.503 28.625C364.636 28.5829 358.807 30.0788 354.042 33.1419L354.312 33.5625ZM371.5 29.125V29.625C377.52 29.625 382.621 30.7794 386.824 33.0643L387.062 32.625L387.301 32.1857C382.92 29.8039 377.647 28.625 371.5 28.625V29.125ZM387.062 32.625L386.816 33.0603C395.232 37.8167 399.5 46.6934 399.5 59.875H400H400.5C400.5 46.4733 396.143 37.1833 387.309 32.1897L387.062 32.625ZM400 59.875H399.5V71.1875H400H400.5V59.875H400ZM400 71.1875V70.6875H362.812V71.1875V71.6875H400V71.1875ZM362.812 71.1875L362.318 71.1168L362.255 71.5543L362.75 71.625L363.245 71.6957L363.307 71.2582L362.812 71.1875ZM362.75 71.625L362.255 71.6943C362.557 73.8531 363.314 75.8031 364.528 77.5367L364.938 77.25L365.347 76.9633C364.227 75.3635 363.526 73.5636 363.245 71.5557L362.75 71.625ZM364.938 77.25L364.518 77.5225C365.656 79.2722 367.249 80.6425 369.28 81.6366L369.5 81.1875L369.72 80.7384C367.835 79.8158 366.386 78.5611 365.357 76.9775L364.938 77.25ZM369.5 81.1875L369.28 81.6366C371.325 82.6373 373.822 83.125 376.75 83.125V82.625V82.125C373.928 82.125 371.591 81.6543 369.72 80.7384L369.5 81.1875ZM376.75 82.625V83.125C382.334 83.125 388.072 81.7498 393.961 79.016L393.75 78.5625L393.539 78.109C387.761 80.7918 382.166 82.125 376.75 82.125V82.625ZM393.75 78.5625L393.282 78.739L398.282 91.989L398.75 91.8125L399.218 91.636L394.218 78.386L393.75 78.5625ZM398.75 91.8125L398.46 91.4053C395.468 93.5364 391.808 95.3074 387.471 96.7118L387.625 97.1875L387.779 97.6632C392.192 96.2343 395.949 94.422 399.04 92.2197L398.75 91.8125ZM387.625 97.1875L387.471 96.7118C383.153 98.1099 378.331 98.8125 373 98.8125V99.3125V99.8125C378.419 99.8125 383.347 99.0984 387.779 97.6632L387.625 97.1875ZM362.562 57.3125L362.172 57.6248L362.422 57.9373L362.812 57.625L363.203 57.3127L362.953 57.0002L362.562 57.3125ZM362.812 57.625V58.125H380V57.625V57.125H362.812V57.625ZM380 57.625H380.5V56H380H379.5V57.625H380ZM380 56H380.5C380.5 53.636 380.268 51.5695 379.795 49.8079L379.312 49.9375L378.83 50.0671C379.274 51.7222 379.5 53.6974 379.5 56H380ZM379.312 49.9375L379.791 49.7922C379.263 48.056 378.344 46.7177 377.014 45.82C375.69 44.9261 374.006 44.5 372 44.5V45V45.5C373.869 45.5 375.341 45.8969 376.455 46.6488C377.563 47.3969 378.362 48.5273 378.834 50.0828L379.312 49.9375ZM372 45V44.5C369.715 44.5 367.842 45.0393 366.436 46.1733L366.75 46.5625L367.064 46.9517C368.241 46.0024 369.868 45.5 372 45.5V45ZM366.75 46.5625L366.436 46.1733C365.057 47.2857 364.05 48.8312 363.401 50.7794L363.875 50.9375L364.349 51.0956C364.95 49.2938 365.86 47.9226 367.064 46.9517L366.75 46.5625ZM363.875 50.9375L363.401 50.7794C362.762 52.6949 362.318 54.8563 362.065 57.2602L362.562 57.3125L363.06 57.3648C363.307 55.0187 363.738 52.9301 364.349 51.0956L363.875 50.9375Z" fill="black"/>
</g>
<defs>
<filter id="filter0_d_1_3" x="0.4375" y="0" width="404.062" height="107.812" filterUnits="userSpaceOnUse" color-interpolation-filters="sRGB">
<feFlood flood-opacity="0" result="BackgroundImageFix"/>
<feColorMatrix in="SourceAlpha" type="matrix" values="0 0 0 0 0 0 0 0 0 0 0 0 0 0 0 0 0 0 127 0" result="hardAlpha"/>
<feOffset dy="4"/>
<feGaussianBlur stdDeviation="2"/>
<feComposite in2="hardAlpha" operator="out"/>
<feColorMatrix type="matrix" values="0 0 0 0 0 0 0 0 0 0 0 0 0 0 0 0 0 0 0.25 0"/>
<feBlend mode="normal" in2="BackgroundImageFix" result="effect1_dropShadow_1_3"/>
<feBlend mode="normal" in="SourceGraphic" in2="effect1_dropShadow_1_3" result="shape"/>
</filter>
</defs>
</svg>
